<svg xmlns="http://www.w3.org/2000/svg" xmlns:xlink="http://www.w3.org/1999/xlink" width="500" zoomAndPan="magnify" viewBox="0 0 375 374.999991" height="500" preserveAspectRatio="xMidYMid meet" version="1.0"><defs><clipPath id="7abf937557"><path d="M 7.707031 7.707031 L 366.957031 7.707031 L 366.957031 366.957031 L 7.707031 366.957031 Z M 7.707031 7.707031 " clip-rule="nonzero"/></clipPath><clipPath id="2bc7641ff6"><path d="M 37.5 43.789062 L 338 43.789062 L 338 333.542969 L 37.5 333.542969 Z M 37.5 43.789062 " clip-rule="nonzero"/></clipPath><clipPath id="e49aee20a8"><path d="M 54.75 43.789062 L 320.25 43.789062 C 324.824219 43.789062 329.210938 45.609375 332.449219 48.84375 C 335.683594 52.078125 337.5 56.464844 337.5 61.039062 L 337.5 316.292969 C 337.5 320.867188 335.683594 325.253906 332.449219 328.488281 C 329.210938 331.722656 324.824219 333.542969 320.25 333.542969 L 54.75 333.542969 C 50.175781 333.542969 45.789062 331.722656 42.550781 328.488281 C 39.316406 325.253906 37.5 320.867188 37.5 316.292969 L 37.5 61.039062 C 37.5 56.464844 39.316406 52.078125 42.550781 48.84375 C 45.789062 45.609375 50.175781 43.789062 54.75 43.789062 Z M 54.75 43.789062 " clip-rule="nonzero"/></clipPath><clipPath id="fe33c667f3"><path d="M 0.5 0.789062 L 300.679688 0.789062 L 300.679688 290.542969 L 0.5 290.542969 Z M 0.5 0.789062 " clip-rule="nonzero"/></clipPath><clipPath id="8941b8b255"><path d="M 17.75 0.789062 L 283.25 0.789062 C 287.824219 0.789062 292.210938 2.609375 295.449219 5.84375 C 298.683594 9.078125 300.5 13.464844 300.5 18.039062 L 300.5 273.292969 C 300.5 277.867188 298.683594 282.253906 295.449219 285.488281 C 292.210938 288.722656 287.824219 290.542969 283.25 290.542969 L 17.75 290.542969 C 13.175781 290.542969 8.789062 288.722656 5.550781 285.488281 C 2.316406 282.253906 0.5 277.867188 0.5 273.292969 L 0.5 18.039062 C 0.5 13.464844 2.316406 9.078125 5.550781 5.84375 C 8.789062 2.609375 13.175781 0.789062 17.75 0.789062 Z M 17.75 0.789062 " clip-rule="nonzero"/></clipPath><clipPath id="cf2c756a41"><rect x="0" width="301" y="0" height="291"/></clipPath><clipPath id="a9d319dad5"><path d="M 37.5 59.292969 L 337.5 59.292969 L 337.5 318.042969 L 37.5 318.042969 Z M 37.5 59.292969 " clip-rule="nonzero"/></clipPath></defs><rect x="-37.5" width="450" fill="#ffffff" y="-37.499999" height="449.999989" fill-opacity="1"/><rect x="-37.5" width="450" fill="#ffffff" y="-37.499999" height="449.999989" fill-opacity="1"/><g clip-path="url(#7abf937557)"><path fill="#242938" d="M 91.90625 7.707031 L 282.757812 7.707031 C 284.132812 7.707031 285.511719 7.738281 286.886719 7.808594 C 288.265625 7.875 289.636719 7.976562 291.007812 8.109375 C 292.378906 8.246094 293.746094 8.414062 295.109375 8.617188 C 296.472656 8.820312 297.832031 9.054688 299.183594 9.324219 C 300.535156 9.59375 301.878906 9.894531 303.214844 10.230469 C 304.550781 10.5625 305.878906 10.929688 307.199219 11.332031 C 308.515625 11.730469 309.824219 12.164062 311.121094 12.628906 C 312.417969 13.089844 313.703125 13.585938 314.976562 14.113281 C 316.25 14.640625 317.511719 15.199219 318.757812 15.789062 C 320 16.378906 321.230469 16.996094 322.449219 17.648438 C 323.664062 18.296875 324.863281 18.976562 326.042969 19.683594 C 327.226562 20.394531 328.390625 21.128906 329.535156 21.894531 C 330.679688 22.660156 331.808594 23.453125 332.914062 24.273438 C 334.019531 25.097656 335.105469 25.945312 336.171875 26.816406 C 337.238281 27.691406 338.28125 28.589844 339.300781 29.515625 C 340.320312 30.441406 341.320312 31.390625 342.292969 32.367188 C 343.269531 33.339844 344.21875 34.339844 345.144531 35.359375 C 346.070312 36.382812 346.96875 37.425781 347.84375 38.488281 C 348.71875 39.554688 349.566406 40.640625 350.386719 41.746094 C 351.207031 42.855469 352 43.980469 352.765625 45.125 C 353.53125 46.273438 354.269531 47.4375 354.976562 48.617188 C 355.683594 49.800781 356.363281 51 357.011719 52.214844 C 357.664062 53.429688 358.28125 54.660156 358.871094 55.90625 C 359.460938 57.152344 360.019531 58.410156 360.546875 59.683594 C 361.074219 60.957031 361.570312 62.242188 362.035156 63.539062 C 362.496094 64.835938 362.929688 66.144531 363.328125 67.464844 C 363.730469 68.78125 364.097656 70.109375 364.433594 71.445312 C 364.765625 72.78125 365.070312 74.125 365.335938 75.476562 C 365.605469 76.828125 365.84375 78.1875 366.042969 79.550781 C 366.246094 80.914062 366.414062 82.28125 366.550781 83.652344 C 366.683594 85.023438 366.785156 86.398438 366.855469 87.773438 C 366.921875 89.148438 366.957031 90.527344 366.957031 91.90625 L 366.957031 282.757812 C 366.957031 284.132812 366.921875 285.511719 366.855469 286.886719 C 366.785156 288.265625 366.683594 289.636719 366.550781 291.007812 C 366.414062 292.378906 366.246094 293.746094 366.042969 295.109375 C 365.84375 296.472656 365.605469 297.832031 365.335938 299.183594 C 365.070312 300.535156 364.765625 301.878906 364.433594 303.214844 C 364.097656 304.550781 363.730469 305.878906 363.328125 307.199219 C 362.929688 308.515625 362.496094 309.824219 362.035156 311.121094 C 361.570312 312.417969 361.074219 313.703125 360.546875 314.976562 C 360.019531 316.25 359.460938 317.511719 358.871094 318.757812 C 358.28125 320 357.664062 321.230469 357.011719 322.449219 C 356.363281 323.664062 355.683594 324.863281 354.976562 326.042969 C 354.269531 327.226562 353.53125 328.390625 352.765625 329.535156 C 352 330.679688 351.207031 331.808594 350.386719 332.914062 C 349.566406 334.019531 348.71875 335.105469 347.84375 336.171875 C 346.96875 337.238281 346.070312 338.28125 345.144531 339.300781 C 344.21875 340.320312 343.269531 341.320312 342.292969 342.292969 C 341.320312 343.269531 340.320312 344.21875 339.300781 345.144531 C 338.28125 346.070312 337.238281 346.96875 336.171875 347.84375 C 335.105469 348.71875 334.019531 349.566406 332.914062 350.386719 C 331.808594 351.207031 330.679688 352 329.535156 352.765625 C 328.390625 353.53125 327.226562 354.269531 326.042969 354.976562 C 324.863281 355.683594 323.664062 356.363281 322.449219 357.011719 C 321.230469 357.664062 320 358.28125 318.757812 358.871094 C 317.511719 359.460938 316.25 360.019531 314.976562 360.546875 C 313.703125 361.074219 312.417969 361.570312 311.121094 362.035156 C 309.824219 362.496094 308.515625 362.929688 307.199219 363.328125 C 305.878906 363.730469 304.550781 364.097656 303.214844 364.433594 C 301.878906 364.765625 300.535156 365.070312 299.183594 365.335938 C 297.832031 365.605469 296.472656 365.84375 295.109375 366.042969 C 293.746094 366.246094 292.378906 366.414062 291.007812 366.550781 C 289.636719 366.683594 288.265625 366.785156 286.886719 366.855469 C 285.511719 366.921875 284.132812 366.957031 282.757812 366.957031 L 91.90625 366.957031 C 90.527344 366.957031 89.148438 366.921875 87.773438 366.855469 C 86.398438 366.785156 85.023438 366.683594 83.652344 366.550781 C 82.28125 366.414062 80.914062 366.246094 79.550781 366.042969 C 78.1875 365.84375 76.828125 365.605469 75.476562 365.335938 C 74.125 365.070312 72.78125 364.765625 71.445312 364.433594 C 70.109375 364.097656 68.78125 363.730469 67.464844 363.328125 C 66.144531 362.929688 64.835938 362.496094 63.539062 362.035156 C 62.242188 361.570312 60.957031 361.074219 59.683594 360.546875 C 58.410156 360.019531 57.152344 359.460938 55.90625 358.871094 C 54.660156 358.28125 53.429688 357.664062 52.214844 357.011719 C 51 356.363281 49.800781 355.683594 48.617188 354.976562 C 47.4375 354.269531 46.273438 353.53125 45.125 352.765625 C 43.980469 352 42.855469 351.207031 41.746094 350.386719 C 40.640625 349.566406 39.554688 348.71875 38.488281 347.84375 C 37.425781 346.96875 36.382812 346.070312 35.359375 345.144531 C 34.339844 344.21875 33.339844 343.269531 32.367188 342.292969 C 31.390625 341.320312 30.441406 340.320312 29.515625 339.300781 C 28.589844 338.28125 27.691406 337.238281 26.816406 336.171875 C 25.945312 335.105469 25.097656 334.019531 24.273438 332.914062 C 23.453125 331.808594 22.660156 330.679688 21.894531 329.535156 C 21.128906 328.390625 20.394531 327.226562 19.683594 326.042969 C 18.976562 324.863281 18.296875 323.664062 17.648438 322.449219 C 16.996094 321.230469 16.378906 320 15.789062 318.757812 C 15.199219 317.511719 14.640625 316.25 14.113281 314.976562 C 13.585938 313.703125 13.089844 312.417969 12.628906 311.121094 C 12.164062 309.824219 11.730469 308.515625 11.332031 307.199219 C 10.929688 305.878906 10.5625 304.550781 10.230469 303.214844 C 9.894531 301.878906 9.59375 300.535156 9.324219 299.183594 C 9.054688 297.832031 8.820312 296.472656 8.617188 295.109375 C 8.414062 293.746094 8.246094 292.378906 8.109375 291.007812 C 7.976562 289.636719 7.875 288.265625 7.808594 286.886719 C 7.738281 285.511719 7.707031 284.132812 7.707031 282.757812 L 7.707031 91.90625 C 7.707031 90.527344 7.738281 89.148438 7.808594 87.773438 C 7.875 86.398438 7.976562 85.023438 8.109375 83.652344 C 8.246094 82.28125 8.414062 80.914062 8.617188 79.550781 C 8.820312 78.1875 9.054688 76.828125 9.324219 75.476562 C 9.59375 74.125 9.894531 72.78125 10.230469 71.445312 C 10.5625 70.109375 10.929688 68.78125 11.332031 67.464844 C 11.730469 66.144531 12.164062 64.835938 12.628906 63.539062 C 13.089844 62.242188 13.585938 60.957031 14.113281 59.683594 C 14.640625 58.410156 15.199219 57.152344 15.789062 55.90625 C 16.378906 54.660156 16.996094 53.429688 17.648438 52.214844 C 18.296875 51 18.976562 49.800781 19.683594 48.617188 C 20.394531 47.4375 21.128906 46.273438 21.894531 45.125 C 22.660156 43.980469 23.453125 42.855469 24.273438 41.746094 C 25.097656 40.640625 25.945312 39.554688 26.816406 38.488281 C 27.691406 37.425781 28.589844 36.382812 29.515625 35.359375 C 30.441406 34.339844 31.390625 33.339844 32.367188 32.367188 C 33.339844 31.390625 34.339844 30.441406 35.359375 29.515625 C 36.382812 28.589844 37.425781 27.691406 38.488281 26.816406 C 39.554688 25.945312 40.640625 25.097656 41.746094 24.273438 C 42.855469 23.453125 43.980469 22.660156 45.125 21.894531 C 46.273438 21.128906 47.4375 20.394531 48.617188 19.683594 C 49.800781 18.976562 51 18.296875 52.214844 17.648438 C 53.429688 16.996094 54.660156 16.378906 55.90625 15.789062 C 57.152344 15.199219 58.410156 14.640625 59.683594 14.113281 C 60.957031 13.585938 62.242188 13.089844 63.539062 12.628906 C 64.835938 12.164062 66.144531 11.730469 67.464844 11.332031 C 68.78125 10.929688 70.109375 10.5625 71.445312 10.230469 C 72.78125 9.894531 74.125 9.59375 75.476562 9.324219 C 76.828125 9.054688 78.1875 8.820312 79.550781 8.617188 C 80.914062 8.414062 82.28125 8.246094 83.652344 8.109375 C 85.023438 7.976562 86.398438 7.875 87.773438 7.808594 C 89.148438 7.738281 90.527344 7.707031 91.90625 7.707031 Z M 91.90625 7.707031 " fill-opacity="1" fill-rule="nonzero"/></g><path fill="#2489ca" d="M 55.019531 148.328125 C 55.019531 148.328125 48.375 143.539062 56.347656 137.144531 L 74.921875 120.535156 C 74.921875 120.535156 80.238281 114.941406 85.859375 119.816406 L 257.273438 249.59375 L 257.273438 311.824219 C 257.273438 311.824219 257.1875 321.597656 244.648438 320.515625 Z M 55.019531 148.328125 " fill-opacity="1" fill-rule="nonzero"/><path fill="#1070b3" d="M 99.203125 188.441406 L 55.019531 228.609375 C 55.019531 228.609375 50.480469 231.988281 55.019531 238.023438 L 75.53125 256.679688 C 75.53125 256.679688 80.40625 261.914062 87.601562 255.960938 L 134.441406 220.441406 Z M 99.203125 188.441406 " fill-opacity="1" fill-rule="nonzero"/><path fill="#0877b9" d="M 176.769531 188.773438 L 257.796875 126.902344 L 257.273438 65.003906 C 257.273438 65.003906 253.8125 51.492188 242.269531 58.523438 L 134.441406 156.660156 Z M 176.769531 188.773438 " fill-opacity="1" fill-rule="nonzero"/><path fill="#3c99d4" d="M 244.648438 320.601562 C 249.355469 325.417969 255.058594 323.839844 255.058594 323.839844 L 318.203125 292.722656 C 326.285156 287.214844 325.152344 280.378906 325.152344 280.378906 L 325.152344 94.570312 C 325.152344 86.402344 316.789062 83.578125 316.789062 83.578125 L 262.0625 57.195312 C 250.101562 49.804688 242.269531 58.523438 242.269531 58.523438 C 242.269531 58.523438 252.34375 51.273438 257.273438 65.003906 L 257.273438 310.6875 C 257.273438 312.378906 256.910156 314.039062 256.191406 315.535156 C 254.753906 318.441406 251.625 321.152344 244.121094 320.019531 Z M 244.648438 320.601562 " fill-opacity="1" fill-rule="nonzero"/><g clip-path="url(#2bc7641ff6)"><g clip-path="url(#e49aee20a8)"><g transform="matrix(1, 0, 0, 1, 37, 43)"><g clip-path="url(#cf2c756a41)"><g clip-path="url(#fe33c667f3)"><g clip-path="url(#8941b8b255)"><path fill="#242938" d="M 0.5 0.789062 L 300.4375 0.789062 L 300.4375 290.542969 L 0.5 290.542969 Z M 0.5 0.789062 " fill-opacity="1" fill-rule="nonzero"/></g></g></g></g></g></g><g clip-path="url(#a9d319dad5)"><path fill="#ffffff" d="M 317.714844 59.285156 L 57.285156 59.285156 C 46.492188 59.285156 37.710938 68.066406 37.710938 78.859375 L 37.710938 298.472656 C 37.710938 309.265625 46.492188 318.046875 57.285156 318.046875 L 317.714844 318.046875 C 328.507812 318.046875 337.289062 309.265625 337.289062 298.472656 L 337.289062 78.859375 C 337.289062 68.066406 328.507812 59.285156 317.714844 59.285156 Z M 57.285156 73.78125 L 317.714844 73.78125 C 320.515625 73.78125 322.792969 76.058594 322.792969 78.859375 L 322.792969 100.90625 L 154.34375 100.90625 C 151.914062 100.90625 149.644531 102.125 148.304688 104.148438 L 140.96875 115.21875 L 52.207031 115.21875 L 52.207031 78.859375 C 52.207031 76.058594 54.484375 73.78125 57.285156 73.78125 Z M 317.714844 303.550781 L 57.285156 303.550781 C 54.484375 303.550781 52.207031 301.273438 52.207031 298.472656 L 52.207031 129.714844 L 144.859375 129.714844 C 147.289062 129.714844 149.558594 128.496094 150.902344 126.472656 L 158.238281 115.402344 L 322.792969 115.402344 L 322.792969 298.472656 C 322.792969 301.226562 320.46875 303.550781 317.714844 303.550781 Z M 64.957031 95.707031 C 64.957031 91.699219 68.207031 88.449219 72.199219 88.449219 C 76.203125 88.449219 79.457031 91.699219 79.457031 95.707031 C 79.457031 99.695312 76.203125 102.949219 72.199219 102.949219 C 68.207031 102.949219 64.957031 99.695312 64.957031 95.707031 Z M 87.65625 95.707031 C 87.65625 91.699219 90.910156 88.449219 94.917969 88.449219 C 98.90625 88.449219 102.160156 91.699219 102.160156 95.707031 C 102.160156 99.695312 98.90625 102.949219 94.917969 102.949219 C 90.910156 102.949219 87.65625 99.695312 87.65625 95.707031 Z M 110.359375 95.707031 C 110.359375 91.699219 113.628906 88.449219 117.621094 88.449219 C 121.609375 88.449219 124.863281 91.699219 124.863281 95.707031 C 124.863281 99.695312 121.609375 102.949219 117.621094 102.949219 C 113.632812 102.949219 110.359375 99.695312 110.359375 95.707031 Z M 158.359375 161.0625 C 155.539062 158.222656 155.558594 153.632812 158.398438 150.8125 C 161.238281 147.992188 165.828125 148.007812 168.648438 150.851562 L 189.773438 172.132812 C 192.582031 174.957031 192.582031 179.519531 189.773438 182.34375 L 168.648438 203.625 C 167.230469 205.050781 165.367188 205.765625 163.503906 205.765625 C 161.65625 205.765625 159.8125 205.066406 158.398438 203.664062 C 155.558594 200.84375 155.539062 196.253906 158.359375 193.414062 L 174.417969 177.238281 Z M 82.839844 182.347656 C 80.03125 179.519531 80.03125 174.957031 82.839844 172.128906 L 103.984375 150.847656 C 106.808594 148.007812 111.394531 147.992188 114.238281 150.816406 C 117.074219 153.636719 117.089844 158.226562 114.269531 161.066406 L 98.199219 177.238281 L 114.269531 193.410156 C 117.089844 196.25 117.074219 200.839844 114.238281 203.660156 C 112.824219 205.066406 110.976562 205.765625 109.128906 205.765625 C 107.265625 205.765625 105.402344 205.054688 103.984375 203.628906 Z M 122.855469 199.601562 L 135.75 151.148438 C 136.777344 147.28125 140.75 144.980469 144.617188 146.007812 C 148.484375 147.035156 150.785156 151.007812 149.757812 154.875 L 136.867188 203.328125 C 136.003906 206.570312 133.070312 208.714844 129.867188 208.714844 C 129.25 208.714844 128.621094 208.632812 127.996094 208.46875 C 124.128906 207.441406 121.828125 203.46875 122.855469 199.601562 Z M 87.984375 219.023438 L 153.316406 219.023438 C 157.320312 219.023438 160.566406 222.269531 160.566406 226.273438 C 160.566406 230.273438 157.320312 233.519531 153.316406 233.519531 L 87.984375 233.519531 C 83.980469 233.519531 80.734375 230.273438 80.734375 226.273438 C 80.734375 222.269531 83.980469 219.023438 87.984375 219.023438 Z M 294.265625 226.273438 C 294.265625 230.273438 291.019531 233.519531 287.015625 233.519531 L 186.429688 233.519531 C 182.425781 233.519531 179.183594 230.273438 179.183594 226.273438 C 179.183594 222.269531 182.425781 219.023438 186.429688 219.023438 L 287.015625 219.023438 C 291.019531 219.023438 294.265625 222.269531 294.265625 226.273438 Z M 160.566406 249.917969 C 160.566406 253.917969 157.320312 257.164062 153.316406 257.164062 L 132.890625 257.164062 C 128.890625 257.164062 125.644531 253.917969 125.644531 249.917969 C 125.644531 245.914062 128.890625 242.667969 132.890625 242.667969 L 153.316406 242.667969 C 157.320312 242.667969 160.566406 245.914062 160.566406 249.917969 Z M 113.183594 242.667969 C 117.1875 242.667969 120.433594 245.914062 120.433594 249.917969 C 120.433594 253.917969 117.1875 257.164062 113.183594 257.164062 L 87.984375 257.164062 C 83.980469 257.164062 80.734375 253.917969 80.734375 249.917969 C 80.734375 245.914062 83.980469 242.667969 87.984375 242.667969 Z M 294.265625 249.917969 C 294.265625 253.917969 291.019531 257.164062 287.015625 257.164062 L 266.574219 257.164062 C 262.570312 257.164062 259.324219 253.917969 259.324219 249.917969 C 259.324219 245.914062 262.570312 242.667969 266.574219 242.667969 L 287.015625 242.667969 C 291.019531 242.667969 294.265625 245.914062 294.265625 249.917969 Z M 246.867188 257.164062 L 221.664062 257.164062 C 217.664062 257.164062 214.417969 253.917969 214.417969 249.917969 C 214.417969 245.914062 217.664062 242.667969 221.664062 242.667969 L 246.867188 242.667969 C 250.871094 242.667969 254.117188 245.914062 254.117188 249.917969 C 254.117188 253.917969 250.871094 257.164062 246.867188 257.164062 Z M 168.550781 249.917969 C 168.550781 245.914062 171.796875 242.667969 175.796875 242.667969 L 196.222656 242.667969 C 200.226562 242.667969 203.472656 245.914062 203.472656 249.917969 C 203.472656 253.917969 200.226562 257.164062 196.222656 257.164062 L 175.796875 257.164062 C 171.796875 257.164062 168.550781 253.917969 168.550781 249.917969 Z M 294.265625 274.742188 C 294.265625 278.746094 291.019531 281.992188 287.015625 281.992188 L 254.519531 281.992188 C 250.519531 281.992188 247.273438 278.746094 247.273438 274.742188 C 247.273438 270.738281 250.519531 267.496094 254.519531 267.496094 L 287.015625 267.496094 C 291.019531 267.496094 294.265625 270.738281 294.265625 274.742188 Z M 182.15625 274.742188 C 182.15625 278.746094 178.910156 281.992188 174.90625 281.992188 L 87.984375 281.992188 C 83.980469 281.992188 80.734375 278.746094 80.734375 274.742188 C 80.734375 270.738281 83.980469 267.496094 87.984375 267.496094 L 174.90625 267.496094 C 178.910156 267.496094 182.15625 270.738281 182.15625 274.742188 Z M 233.277344 274.742188 C 233.277344 278.746094 230.035156 281.992188 226.03125 281.992188 L 201.066406 281.992188 C 197.066406 281.992188 193.820312 278.746094 193.820312 274.742188 C 193.820312 270.738281 197.066406 267.496094 201.066406 267.496094 L 226.03125 267.496094 C 230.035156 267.496094 233.277344 270.738281 233.277344 274.742188 Z M 294.265625 153.011719 C 294.265625 157.015625 291.019531 160.257812 287.015625 160.257812 L 207.007812 160.257812 C 203.007812 160.257812 199.761719 157.015625 199.761719 153.011719 C 199.761719 149.007812 203.007812 145.761719 207.007812 145.761719 L 287.015625 145.761719 C 291.019531 145.761719 294.265625 149.007812 294.265625 153.011719 Z M 294.265625 176.65625 C 294.265625 180.660156 291.019531 183.902344 287.015625 183.902344 L 251.902344 183.902344 C 247.898438 183.902344 244.652344 180.660156 244.652344 176.65625 C 244.652344 172.652344 247.898438 169.40625 251.902344 169.40625 L 287.015625 169.40625 C 291.019531 169.40625 294.265625 172.652344 294.265625 176.65625 Z M 199.761719 176.65625 C 199.761719 172.652344 203.007812 169.40625 207.007812 169.40625 L 232.210938 169.40625 C 236.214844 169.40625 239.460938 172.652344 239.460938 176.65625 C 239.460938 180.660156 236.214844 183.902344 232.210938 183.902344 L 207.007812 183.902344 C 203.007812 183.902344 199.761719 180.660156 199.761719 176.65625 Z M 294.265625 201.464844 C 294.265625 205.46875 291.019531 208.710938 287.015625 208.710938 L 207.007812 208.710938 C 203.007812 208.710938 199.761719 205.46875 199.761719 201.464844 C 199.761719 197.460938 203.007812 194.214844 207.007812 194.214844 L 287.015625 194.214844 C 291.019531 194.214844 294.265625 197.460938 294.265625 201.464844 Z M 294.265625 201.464844 " fill-opacity="1" fill-rule="nonzero"/></g></svg>